<?xml version="1.0" encoding="iso-8859-1"?>
<!-- Uploaded to: SVG Repo, www.svgrepo.com, Generator: SVG Repo Mixer Tools -->
<svg height="800px" width="800px" version="1.1" id="Layer_1" xmlns="http://www.w3.org/2000/svg" xmlns:xlink="http://www.w3.org/1999/xlink" 
	 viewBox="0 0 512 512" xml:space="preserve">
<path style="fill:#F5F5F5;" d="M503.5,373.8H35.4c-4.6,0-8.4-3.7-8.4-8.4V64.6c0-4.6,3.7-8.4,8.4-8.4h468.2c4.6,0,8.4,3.7,8.4,8.4
	v300.9C511.9,370,508.2,373.8,503.5,373.8z"/>
<g>
	<path style="fill:#FF4B55;" d="M503.5,373.8H35.4c-4.6,0-8.4-3.7-8.4-8.4V265.1h484.9v100.3C511.9,370,508.2,373.8,503.5,373.8z"/>
	<polygon style="fill:#FF4B55;" points="361.4,173.1 361.4,156.4 344.7,156.4 344.7,114.7 353,114.7 353,97.9 302.8,97.9 
		302.8,114.7 311.2,114.7 311.2,156.4 286.1,156.4 286.1,97.9 294.5,97.9 294.5,81.3 244.3,81.3 244.3,97.9 252.7,97.9 252.7,156.4 
		227.6,156.4 227.6,114.7 236,114.7 236,97.9 185.8,97.9 185.8,114.7 194.1,114.7 194.1,156.4 177.4,156.4 177.4,173.1 185.8,173.1 
		185.8,240 177.4,240 177.4,256.7 361.4,256.7 361.4,240 353,240 353,173.1 	"/>
</g>
<g>
	<path style="fill:#464655;" d="M286.1,248.3h-33.4v-33.4c0-9.2,7.5-16.7,16.7-16.7l0,0c9.2,0,16.7,7.5,16.7,16.7L286.1,248.3
		L286.1,248.3z"/>
	<path style="fill:#464655;" d="M269.4,131.4c-4.6,0-8.4,3.7-8.4,8.4v25.1h16.7v-25.1C277.8,135.1,274,131.4,269.4,131.4z"/>
	<path style="fill:#464655;" d="M327.9,139.7c-4.6,0-8.4,3.7-8.4,8.4v16.7h16.7v-16.7C336.3,143.5,332.6,139.7,327.9,139.7z"/>
	<path style="fill:#464655;" d="M210.9,139.7c-4.6,0-8.4,3.7-8.4,8.4v16.7h16.7v-16.7C219.2,143.5,215.5,139.7,210.9,139.7z"/>
	<path style="fill:#464655;" d="M336.3,248.3h-33.4v-25.1c0-9.2,7.5-16.7,16.7-16.7l0,0c9.2,0,16.7,7.5,16.7,16.7L336.3,248.3
		L336.3,248.3z"/>
	<path style="fill:#464655;" d="M236,248.3h-33.4v-25.1c0-9.2,7.5-16.7,16.7-16.7l0,0c9.2,0,16.7,7.5,16.7,16.7V248.3L236,248.3z"/>
</g>
<path style="fill:#FFE15A;" d="M292.4,277.6c0-1.4-0.7-2.7-1.9-3.5l-17-11.3v-3.5l14.4-7.2c2.1-1,2.9-3.5,1.9-5.6s-3.5-2.9-5.6-1.9
	l-14.9,7.4l-14.9-7.4c-2.1-1-4.6-0.2-5.6,1.9s-0.2,4.6,1.9,5.6l14.4,7.2v3.5l-17,11.3c-1.2,0.8-1.9,2.1-1.9,3.5s0.7,2.7,1.9,3.5
	l17,11.3v35.4h-16.7v6.4c0,2.3,1.9,4.2,4.2,4.2c1.6,0,3-0.9,3.7-2.2h8.8v8.4h-8.9c-0.7-1.2-2.1-2.1-3.6-2.1c-2.3,0-4.2,1.9-4.2,4.2
	v6.3h16.7v4.2c0,2.3,1.9,4.2,4.2,4.2c2.3,0,4.2-1.9,4.2-4.2v-4.3v-25.1v-35.4l17-11.3C291.7,280.3,292.4,279,292.4,277.6z
	 M269.4,285.1l-11.3-7.5l11.3-7.5l11.3,7.5L269.4,285.1z"/>
<path style="fill:#2E3033;" d="M19.2,489L19.2,489C8.6,489,0,480.4,0,469.8V42c0-10.5,8.5-19,19-19h0.2c10.6,0,19.2,8.6,19.2,19.2
	v427.7C38.4,480.4,29.8,489,19.2,489z"/>
</svg>