<svg width="24" height="25" viewBox="0 0 24 25" fill="none" xmlns="http://www.w3.org/2000/svg">
<path d="M15 4.25C13.4678 4.25118 11.9662 4.67857 10.663 5.48437C9.35987 6.29017 8.30657 7.44262 7.62093 8.81281C6.80527 8.69385 5.97384 8.74424 5.17851 8.96082C4.38319 9.17741 3.64101 9.55555 2.99829 10.0717C2.35557 10.5878 1.82609 11.2308 1.44287 11.9606C1.05966 12.6904 0.830923 13.4913 0.770942 14.3134C0.710961 15.1355 0.821019 15.9612 1.09425 16.7388C1.36748 17.5165 1.79803 18.2296 2.35903 18.8335C2.92003 19.4375 3.59946 19.9193 4.35493 20.249C5.1104 20.5788 5.9257 20.7493 6.75 20.75H15C17.188 20.75 19.2865 19.8808 20.8336 18.3336C22.3808 16.7865 23.25 14.688 23.25 12.5C23.25 10.312 22.3808 8.21354 20.8336 6.66637C19.2865 5.11919 17.188 4.25 15 4.25ZM15 19.25H6.75C5.55652 19.25 4.41193 18.7759 3.56802 17.932C2.7241 17.0881 2.25 15.9435 2.25 14.75C2.25 13.5565 2.7241 12.4119 3.56802 11.568C4.41193 10.7241 5.55652 10.25 6.75 10.25C6.85312 10.25 6.95625 10.25 7.05843 10.2603C6.85333 10.9892 6.74954 11.7428 6.75 12.5C6.75 12.6989 6.82901 12.8897 6.96967 13.0303C7.11032 13.171 7.30108 13.25 7.5 13.25C7.69891 13.25 7.88967 13.171 8.03033 13.0303C8.17098 12.8897 8.25 12.6989 8.25 12.5C8.25 11.165 8.64588 9.85993 9.38758 8.7499C10.1293 7.63987 11.1835 6.7747 12.4169 6.26381C13.6503 5.75292 15.0075 5.61925 16.3169 5.8797C17.6262 6.14015 18.829 6.78302 19.773 7.72703C20.717 8.67103 21.3598 9.87377 21.6203 11.1831C21.8807 12.4925 21.7471 13.8497 21.2362 15.0831C20.7253 16.3165 19.8601 17.3707 18.7501 18.1124C17.6401 18.8541 16.335 19.25 15 19.25Z" fill="#1172E0"/>
</svg>
