<svg width="45" height="45" viewBox="0 0 45 45" fill="none" xmlns="http://www.w3.org/2000/svg">
<path d="M34.8943 9.85957C32.7727 6.22266 29.8687 4.21875 26.7188 4.21875H18.2812C15.1313 4.21875 12.2273 6.22266 10.1057 9.85957C8.12285 13.2574 7.03125 17.7539 7.03125 22.5C7.03125 27.2461 8.12285 31.7426 10.1057 35.1404C12.2273 38.7773 15.1313 40.7812 18.2812 40.7812H26.7188C29.8687 40.7812 32.7727 38.7773 34.8943 35.1404C36.8771 31.7426 37.9688 27.2461 37.9688 22.5C37.9688 17.7539 36.8771 13.2574 34.8943 9.85957ZM35.1193 21.0938H29.4943C29.3845 18.2081 28.8099 15.359 27.7928 12.6562H33.1699C34.2457 15.0082 34.9559 17.9297 35.1193 21.0938ZM31.4982 9.84375H26.448C25.8607 8.82478 25.1524 7.88044 24.3387 7.03125H26.7188C28.4766 7.03125 30.1289 8.08594 31.4982 9.84375ZM9.84375 22.5C9.84375 14.1152 13.7109 7.03125 18.2812 7.03125C22.8516 7.03125 26.7188 14.1152 26.7188 22.5C26.7188 30.8848 22.8516 37.9688 18.2812 37.9688C13.7109 37.9688 9.84375 30.8848 9.84375 22.5ZM26.7188 37.9688H24.3439C25.1577 37.1196 25.8659 36.1752 26.4533 35.1562H31.5035C30.1289 36.9141 28.4766 37.9688 26.7188 37.9688ZM33.1699 32.3438H27.7945C28.8117 29.641 29.3862 26.7919 29.4961 23.9062H35.1211C34.9559 27.0703 34.2457 29.9918 33.1699 32.3438Z" fill="#1172E0"/>
</svg>
